<svg xmlns="http://www.w3.org/2000/svg" version="1.1" xmlns:xlink="http://www.w3.org/1999/xlink" xmlns:svgjs="http://svgjs.com/svgjs" width="500" height="500" viewBox="0 0 900 900" id="frames" xml:space="preserve" x="200" y="220" fill-rule="evenodd" fill="url(#SvgjsLinearGradient27825875)"><svg id="SvgjsSvg1001" width="2" height="0" focusable="false" style="overflow: hidden; top: -100%; left: -100%; position: absolute; opacity: 0"><polyline id="SvgjsPolyline1002" points="0,0"></polyline><path id="SvgjsPath1003" d="M264.74201474201476 223H735.2579852579852C743.3660933660933 223 750 227.5 750 233V253C750 258.5 743.3660933660933 263 735.2579852579852 263H264.74201474201476C256.63390663390663 263 250 258.5 250 253V233C250 227.5 256.63390663390663 223 264.74201474201476 223Z "></path></svg><path id="SvgjsPath7581691" d="M900 450C900 696.821608040201 701.3442211055276 897.1733668341709 455.20100502512565 900C453.50502512562815 900 451.80904522613065 900 450 900C201.4824120603015 900 0 698.5175879396985 0 450S201.4824120603015 0 450 0C667.9899497487437 0 849.9120603015075 155.01256281407035 891.1809045226131 360.90452261306535C897.0603015075377 390.30150753768845 900 420.1507537688442 900 450Z " fill="url(#SvgjsLinearGradient7581696)"></path><path id="SvgjsPath7581692" d="M900 443.09220985691576C900 696.4451510333862 695.6976744186045 902.0985691573927 442.55813953488376 905L204.65116279069767 718.147853736089C204.65116279069767 718.147853736089 200 714.6661367249602 200 706.5421303656598V188.92686804451512C200 188.92686804451512 201.1627906976744 175 213.95348837209303 175H662.7906976744187L890.9302325581397 351.63910969793324C896.9767441860465 381.81399046104923 900 412.4531001589826 900 443.09220985691576Z " fill="#3a74c5"></path><path id="SvgjsPath7581693" d="M175.00000000000003 254.17100371747213V179.6728624535316C175.00000000000003 162.275092936803 189.83960059485875 148.11152416356876 208.06777140429153 148H278.99405141278953M286.47227533460807 748H208.1846186530699C189.95644784363714 748 175.1168472487784 733.8364312267659 175 716.4386617100372V644.728624535316M725 644.6171003717471V716.3271375464683C725 733.724907063197 710.1603994051412 747.8884758364311 691.8153813469302 747.8884758364311H630.120033991927M630.1200339919269 148.00000000000003H691.8153813469299C710.0435521563628 148.00000000000003 724.8831527512214 162.16356877323423 724.8831527512214 179.67286245353165V250.26765799256506 " fill="none" stroke="#ffffff" stroke-width="10" stroke-linecap="round" stroke-linejoin="round"></path><path id="SvgjsPath7581694" d="M214.74201474201476 175H685.2579852579852C693.3660933660933 175 700 179.5 700 185V205C700 210.5 693.3660933660933 215 685.2579852579852 215H214.74201474201476C206.63390663390663 215 200 210.5 200 205V185C200 179.5 206.63390663390663 175 214.74201474201476 175Z " fill="#ffffff"></path><defs id="SvgjsDefs7581695"><linearGradient id="SvgjsLinearGradient7581696"><stop id="SvgjsStop7581697" stop-color="#054080" offset="0"></stop><stop id="SvgjsStop7581698" stop-color="#719799" offset="1"></stop></linearGradient></defs><text id="SvgjsText7581699" font-family="Arial" x="450" y="151.3015625" fill="#054080" font-size="40" font-weight="700" text-anchor="middle" size="40" anchor="middle" svgjs:data="{&quot;leading&quot;:&quot;1.5&quot;}"><tspan id="SvgjsTspan7581700" dy="60" x="450" svgjs:data="{&quot;newLined&quot;:true}">Github Code</tspan></text><svg version="1.1" xmlns:xlink="http://www.w3.org/1999/xlink" xmlns:svgjs="http://svgjs.com/svgjs" width="499.99999999999994" height="499.99999999999994" viewBox="0 0 499.99999999999994 499.99999999999994" id="QRtiger" xml:space="preserve" x="200" y="220" fill-rule="evenodd" fill="url(#SvgjsLinearGradient27825875)"><svg id="SvgjsSvg1001" width="2" height="0" focusable="false" style="overflow: hidden; top: -100%; left: -100%; position: absolute; opacity: 0"><polyline id="SvgjsPolyline1002" points="0,0"></polyline><path id="SvgjsPath1003" d="M87.02702702702702 43.89851351351351C87.02702702702702 67.93054354354354 67.54554354354354 87.41202702702701 43.51351351351351 87.41202702702701S0 67.93054354354354 0 43.8985135135135S19.48148348348348 0.3849999999999909 43.51351351351351 0.3849999999999909S87.02702702702702 19.86648348348348 87.02702702702702 43.89851351351351ZM43.51351351351351 10.054669669669668C24.82204204204204 10.054669669669668 9.66966966966967 25.20704204204204 9.66966966966967 43.89851351351351S24.82204204204204 77.74235735735735 43.51351351351351 77.74235735735735S77.35735735735736 62.589984984984966 77.35735735735736 43.8985135135135S62.204984984984975 10.054669669669668 43.51351351351351 10.054669669669668Z "></path></svg><defs id="SvgjsDefs28492242"><linearGradient id="linearGradient" gradientUnits="userSpaceOnUse" x1="0" y1="0" x2="499.99999999999994" y2="0"><stop id="SvgjsStop28492244" stop-color="#ff0000" offset="0"></stop><stop id="SvgjsStop28492245" stop-color="#0000ff" offset="1"></stop></linearGradient></defs><rect id="background" width="499.99999999999994" height="499.99999999999994" rx="9.999999999999998" ry="9.999999999999998" fill="#ffffff"></rect><circle id="r0C8" r="3.918918918918918" cx="125.98648648648648" cy="26.527027027027028" fill="#054080"></circle><circle id="r0C11" r="3.918918918918918" cx="163.28378378378378" cy="26.527027027027028" fill="#054080"></circle><circle id="r0C12" r="3.918918918918918" cx="175.7162162162162" cy="26.527027027027028" fill="#054080"></circle><circle id="r0C13" r="3.918918918918918" cx="188.14864864864865" cy="26.527027027027028" fill="#054080"></circle><circle id="r0C14" r="3.918918918918918" cx="200.58108108108107" cy="26.527027027027028" fill="#054080"></circle><circle id="r0C15" r="3.918918918918918" cx="213.01351351351352" cy="26.527027027027028" fill="#054080"></circle><circle id="r0C18" r="3.918918918918918" cx="250.3108108108108" cy="26.527027027027028" fill="#054080"></circle><circle id="r0C19" r="3.918918918918918" cx="262.7432432432432" cy="26.527027027027028" fill="#054080"></circle><circle id="r0C21" r="3.918918918918918" cx="287.60810810810807" cy="26.527027027027028" fill="#054080"></circle><circle id="r0C23" r="3.918918918918918" cx="312.47297297297297" cy="26.527027027027028" fill="#054080"></circle><circle id="r0C24" r="3.918918918918918" cx="324.90540540540536" cy="26.527027027027028" fill="#054080"></circle><circle id="r1C8" r="3.918918918918918" cx="125.98648648648648" cy="38.95945945945946" fill="#054080"></circle><circle id="r1C9" r="3.918918918918918" cx="138.4189189189189" cy="38.95945945945946" fill="#054080"></circle><circle id="r1C11" r="3.918918918918918" cx="163.28378378378378" cy="38.95945945945946" fill="#054080"></circle><circle id="r1C13" r="3.918918918918918" cx="188.14864864864865" cy="38.95945945945946" fill="#054080"></circle><circle id="r1C14" r="3.918918918918918" cx="200.58108108108107" cy="38.95945945945946" fill="#054080"></circle><circle id="r1C15" r="3.918918918918918" cx="213.01351351351352" cy="38.95945945945946" fill="#054080"></circle><circle id="r1C18" r="3.918918918918918" cx="250.3108108108108" cy="38.95945945945946" fill="#054080"></circle><circle id="r1C27" r="3.918918918918918" cx="362.2027027027027" cy="38.95945945945946" fill="#054080"></circle><circle id="r1C28" r="3.918918918918918" cx="374.6351351351351" cy="38.95945945945946" fill="#054080"></circle><circle id="r2C8" r="3.918918918918918" cx="125.98648648648648" cy="51.39189189189189" fill="#054080"></circle><circle id="r2C10" r="3.918918918918918" cx="150.85135135135135" cy="51.39189189189189" fill="#054080"></circle><circle id="r2C12" r="3.918918918918918" cx="175.7162162162162" cy="51.39189189189189" fill="#054080"></circle><circle id="r2C17" r="3.918918918918918" cx="237.87837837837836" cy="51.39189189189189" fill="#054080"></circle><circle id="r2C20" r="3.918918918918918" cx="275.1756756756757" cy="51.39189189189189" fill="#054080"></circle><circle id="r2C21" r="3.918918918918918" cx="287.60810810810807" cy="51.39189189189189" fill="#054080"></circle><circle id="r2C22" r="3.918918918918918" cx="300.0405405405405" cy="51.39189189189189" fill="#054080"></circle><circle id="r2C24" r="3.918918918918918" cx="324.90540540540536" cy="51.39189189189189" fill="#054080"></circle><circle id="r2C26" r="3.918918918918918" cx="349.77027027027026" cy="51.39189189189189" fill="#054080"></circle><circle id="r2C27" r="3.918918918918918" cx="362.2027027027027" cy="51.39189189189189" fill="#054080"></circle><circle id="r2C28" r="3.918918918918918" cx="374.6351351351351" cy="51.39189189189189" fill="#054080"></circle><circle id="r3C13" r="3.918918918918918" cx="188.14864864864865" cy="63.824324324324316" fill="#054080"></circle><circle id="r3C14" r="3.918918918918918" cx="200.58108108108107" cy="63.824324324324316" fill="#054080"></circle><circle id="r3C16" r="3.918918918918918" cx="225.44594594594594" cy="63.824324324324316" fill="#054080"></circle><circle id="r3C17" r="3.918918918918918" cx="237.87837837837836" cy="63.824324324324316" fill="#054080"></circle><circle id="r3C18" r="3.918918918918918" cx="250.3108108108108" cy="63.824324324324316" fill="#054080"></circle><circle id="r3C24" r="3.918918918918918" cx="324.90540540540536" cy="63.824324324324316" fill="#054080"></circle><circle id="r3C25" r="3.918918918918918" cx="337.3378378378378" cy="63.824324324324316" fill="#054080"></circle><circle id="r3C26" r="3.918918918918918" cx="349.77027027027026" cy="63.824324324324316" fill="#054080"></circle><circle id="r4C9" r="3.918918918918918" cx="138.4189189189189" cy="76.25675675675676" fill="#054080"></circle><circle id="r4C11" r="3.918918918918918" cx="163.28378378378378" cy="76.25675675675676" fill="#054080"></circle><circle id="r4C13" r="3.918918918918918" cx="188.14864864864865" cy="76.25675675675676" fill="#054080"></circle><circle id="r4C14" r="3.918918918918918" cx="200.58108108108107" cy="76.25675675675676" fill="#054080"></circle><circle id="r4C16" r="3.918918918918918" cx="225.44594594594594" cy="76.25675675675676" fill="#054080"></circle><circle id="r4C17" r="3.918918918918918" cx="237.87837837837836" cy="76.25675675675676" fill="#054080"></circle><circle id="r4C19" r="3.918918918918918" cx="262.7432432432432" cy="76.25675675675676" fill="#054080"></circle><circle id="r4C20" r="3.918918918918918" cx="275.1756756756757" cy="76.25675675675676" fill="#054080"></circle><circle id="r4C21" r="3.918918918918918" cx="287.60810810810807" cy="76.25675675675676" fill="#054080"></circle><circle id="r5C8" r="3.918918918918918" cx="125.98648648648648" cy="88.6891891891892" fill="#054080"></circle><circle id="r5C9" r="3.918918918918918" cx="138.4189189189189" cy="88.6891891891892" fill="#054080"></circle><circle id="r5C15" r="3.918918918918918" cx="213.01351351351352" cy="88.6891891891892" fill="#054080"></circle><circle id="r5C18" r="3.918918918918918" cx="250.3108108108108" cy="88.6891891891892" fill="#054080"></circle><circle id="r5C26" r="3.918918918918918" cx="349.77027027027026" cy="88.6891891891892" fill="#054080"></circle><circle id="r5C27" r="3.918918918918918" cx="362.2027027027027" cy="88.6891891891892" fill="#054080"></circle><circle id="r5C28" r="3.918918918918918" cx="374.6351351351351" cy="88.6891891891892" fill="#054080"></circle><circle id="r6C8" r="3.918918918918918" cx="125.98648648648648" cy="101.12162162162161" fill="#054080"></circle><circle id="r6C10" r="3.918918918918918" cx="150.85135135135135" cy="101.12162162162161" fill="#054080"></circle><circle id="r6C12" r="3.918918918918918" cx="175.7162162162162" cy="101.12162162162161" fill="#054080"></circle><circle id="r6C14" r="3.918918918918918" cx="200.58108108108107" cy="101.12162162162161" fill="#054080"></circle><circle id="r6C16" r="3.918918918918918" cx="225.44594594594594" cy="101.12162162162161" fill="#054080"></circle><circle id="r6C18" r="3.918918918918918" cx="250.3108108108108" cy="101.12162162162161" fill="#054080"></circle><circle id="r6C20" r="3.918918918918918" cx="275.1756756756757" cy="101.12162162162161" fill="#054080"></circle><circle id="r6C22" r="3.918918918918918" cx="300.0405405405405" cy="101.12162162162161" fill="#054080"></circle><circle id="r6C24" r="3.918918918918918" cx="324.90540540540536" cy="101.12162162162161" fill="#054080"></circle><circle id="r6C26" r="3.918918918918918" cx="349.77027027027026" cy="101.12162162162161" fill="#054080"></circle><circle id="r6C28" r="3.918918918918918" cx="374.6351351351351" cy="101.12162162162161" fill="#054080"></circle><circle id="r7C8" r="3.918918918918918" cx="125.98648648648648" cy="113.55405405405405" fill="#054080"></circle><circle id="r7C11" r="3.918918918918918" cx="163.28378378378378" cy="113.55405405405405" fill="#054080"></circle><circle id="r7C13" r="3.918918918918918" cx="188.14864864864865" cy="113.55405405405405" fill="#054080"></circle><circle id="r7C18" r="3.918918918918918" cx="250.3108108108108" cy="113.55405405405405" fill="#054080"></circle><circle id="r7C21" r="3.918918918918918" cx="287.60810810810807" cy="113.55405405405405" fill="#054080"></circle><circle id="r7C22" r="3.918918918918918" cx="300.0405405405405" cy="113.55405405405405" fill="#054080"></circle><circle id="r7C23" r="3.918918918918918" cx="312.47297297297297" cy="113.55405405405405" fill="#054080"></circle><circle id="r7C28" r="3.918918918918918" cx="374.6351351351351" cy="113.55405405405405" fill="#054080"></circle><circle id="r8C2" r="3.918918918918918" cx="51.39189189189189" cy="125.98648648648648" fill="#054080"></circle><circle id="r8C3" r="3.918918918918918" cx="63.824324324324316" cy="125.98648648648648" fill="#054080"></circle><circle id="r8C4" r="3.918918918918918" cx="76.25675675675676" cy="125.98648648648648" fill="#054080"></circle><circle id="r8C6" r="3.918918918918918" cx="101.12162162162161" cy="125.98648648648648" fill="#054080"></circle><circle id="r8C8" r="3.918918918918918" cx="125.98648648648648" cy="125.98648648648648" fill="#054080"></circle><circle id="r8C11" r="3.918918918918918" cx="163.28378378378378" cy="125.98648648648648" fill="#054080"></circle><circle id="r8C12" r="3.918918918918918" cx="175.7162162162162" cy="125.98648648648648" fill="#054080"></circle><circle id="r8C13" r="3.918918918918918" cx="188.14864864864865" cy="125.98648648648648" fill="#054080"></circle><circle id="r8C14" r="3.918918918918918" cx="200.58108108108107" cy="125.98648648648648" fill="#054080"></circle><circle id="r8C15" r="3.918918918918918" cx="213.01351351351352" cy="125.98648648648648" fill="#054080"></circle><circle id="r8C17" r="3.918918918918918" cx="237.87837837837836" cy="125.98648648648648" fill="#054080"></circle><circle id="r8C18" r="3.918918918918918" cx="250.3108108108108" cy="125.98648648648648" fill="#054080"></circle><circle id="r8C20" r="3.918918918918918" cx="275.1756756756757" cy="125.98648648648648" fill="#054080"></circle><circle id="r8C23" r="3.918918918918918" cx="312.47297297297297" cy="125.98648648648648" fill="#054080"></circle><circle id="r8C24" r="3.918918918918918" cx="324.90540540540536" cy="125.98648648648648" fill="#054080"></circle><circle id="r8C25" r="3.918918918918918" cx="337.3378378378378" cy="125.98648648648648" fill="#054080"></circle><circle id="r8C26" r="3.918918918918918" cx="349.77027027027026" cy="125.98648648648648" fill="#054080"></circle><circle id="r8C28" r="3.918918918918918" cx="374.6351351351351" cy="125.98648648648648" fill="#054080"></circle><circle id="r8C29" r="3.918918918918918" cx="387.06756756756755" cy="125.98648648648648" fill="#054080"></circle><circle id="r8C30" r="3.918918918918918" cx="399.5" cy="125.98648648648648" fill="#054080"></circle><circle id="r8C31" r="3.918918918918918" cx="411.9324324324324" cy="125.98648648648648" fill="#054080"></circle><circle id="r8C34" r="3.918918918918918" cx="449.2297297297297" cy="125.98648648648648" fill="#054080"></circle><circle id="r8C35" r="3.918918918918918" cx="461.66216216216213" cy="125.98648648648648" fill="#054080"></circle><circle id="r8C36" r="3.918918918918918" cx="474.0945945945946" cy="125.98648648648648" fill="#054080"></circle><circle id="r9C0" r="3.918918918918918" cx="26.527027027027028" cy="138.4189189189189" fill="#054080"></circle><circle id="r9C1" r="3.918918918918918" cx="38.95945945945946" cy="138.4189189189189" fill="#054080"></circle><circle id="r9C2" r="3.918918918918918" cx="51.39189189189189" cy="138.4189189189189" fill="#054080"></circle><circle id="r9C4" r="3.918918918918918" cx="76.25675675675676" cy="138.4189189189189" fill="#054080"></circle><circle id="r9C7" r="3.918918918918918" cx="113.55405405405405" cy="138.4189189189189" fill="#054080"></circle><circle id="r9C8" r="3.918918918918918" cx="125.98648648648648" cy="138.4189189189189" fill="#054080"></circle><circle id="r9C11" r="3.918918918918918" cx="163.28378378378378" cy="138.4189189189189" fill="#054080"></circle><circle id="r9C13" r="3.918918918918918" cx="188.14864864864865" cy="138.4189189189189" fill="#054080"></circle><circle id="r9C14" r="3.918918918918918" cx="200.58108108108107" cy="138.4189189189189" fill="#054080"></circle><circle id="r9C15" r="3.918918918918918" cx="213.01351351351352" cy="138.4189189189189" fill="#054080"></circle><circle id="r9C17" r="3.918918918918918" cx="237.87837837837836" cy="138.4189189189189" fill="#054080"></circle><circle id="r9C19" r="3.918918918918918" cx="262.7432432432432" cy="138.4189189189189" fill="#054080"></circle><circle id="r9C20" r="3.918918918918918" cx="275.1756756756757" cy="138.4189189189189" fill="#054080"></circle><circle id="r9C23" r="3.918918918918918" cx="312.47297297297297" cy="138.4189189189189" fill="#054080"></circle><circle id="r9C24" r="3.918918918918918" cx="324.90540540540536" cy="138.4189189189189" fill="#054080"></circle><circle id="r9C25" r="3.918918918918918" cx="337.3378378378378" cy="138.4189189189189" fill="#054080"></circle><circle id="r9C28" r="3.918918918918918" cx="374.6351351351351" cy="138.4189189189189" fill="#054080"></circle><circle id="r9C31" r="3.918918918918918" cx="411.9324324324324" cy="138.4189189189189" fill="#054080"></circle><circle id="r9C33" r="3.918918918918918" cx="436.7972972972973" cy="138.4189189189189" fill="#054080"></circle><circle id="r10C1" r="3.918918918918918" cx="38.95945945945946" cy="150.85135135135135" fill="#054080"></circle><circle id="r10C2" r="3.918918918918918" cx="51.39189189189189" cy="150.85135135135135" fill="#054080"></circle><circle id="r10C3" r="3.918918918918918" cx="63.824324324324316" cy="150.85135135135135" fill="#054080"></circle><circle id="r10C6" r="3.918918918918918" cx="101.12162162162161" cy="150.85135135135135" fill="#054080"></circle><circle id="r10C8" r="3.918918918918918" cx="125.98648648648648" cy="150.85135135135135" fill="#054080"></circle><circle id="r10C12" r="3.918918918918918" cx="175.7162162162162" cy="150.85135135135135" fill="#054080"></circle><circle id="r10C13" r="3.918918918918918" cx="188.14864864864865" cy="150.85135135135135" fill="#054080"></circle><circle id="r10C16" r="3.918918918918918" cx="225.44594594594594" cy="150.85135135135135" fill="#054080"></circle><circle id="r10C17" r="3.918918918918918" cx="237.87837837837836" cy="150.85135135135135" fill="#054080"></circle><circle id="r10C20" r="3.918918918918918" cx="275.1756756756757" cy="150.85135135135135" fill="#054080"></circle><circle id="r10C25" r="3.918918918918918" cx="337.3378378378378" cy="150.85135135135135" fill="#054080"></circle><circle id="r10C26" r="3.918918918918918" cx="349.77027027027026" cy="150.85135135135135" fill="#054080"></circle><circle id="r10C27" r="3.918918918918918" cx="362.2027027027027" cy="150.85135135135135" fill="#054080"></circle><circle id="r10C28" r="3.918918918918918" cx="374.6351351351351" cy="150.85135135135135" fill="#054080"></circle><circle id="r10C30" r="3.918918918918918" cx="399.5" cy="150.85135135135135" fill="#054080"></circle><circle id="r10C31" r="3.918918918918918" cx="411.9324324324324" cy="150.85135135135135" fill="#054080"></circle><circle id="r10C33" r="3.918918918918918" cx="436.7972972972973" cy="150.85135135135135" fill="#054080"></circle><circle id="r10C34" r="3.918918918918918" cx="449.2297297297297" cy="150.85135135135135" fill="#054080"></circle><circle id="r10C35" r="3.918918918918918" cx="461.66216216216213" cy="150.85135135135135" fill="#054080"></circle><circle id="r10C36" r="3.918918918918918" cx="474.0945945945946" cy="150.85135135135135" fill="#054080"></circle><circle id="r11C0" r="3.918918918918918" cx="26.527027027027028" cy="163.28378378378378" fill="#054080"></circle><circle id="r11C2" r="3.918918918918918" cx="51.39189189189189" cy="163.28378378378378" fill="#054080"></circle><circle id="r11C4" r="3.918918918918918" cx="76.25675675675676" cy="163.28378378378378" fill="#054080"></circle><circle id="r11C7" r="3.918918918918918" cx="113.55405405405405" cy="163.28378378378378" fill="#054080"></circle><circle id="r11C9" r="3.918918918918918" cx="138.4189189189189" cy="163.28378378378378" fill="#054080"></circle><circle id="r11C15" r="3.918918918918918" cx="213.01351351351352" cy="163.28378378378378" fill="#054080"></circle><circle id="r11C16" r="3.918918918918918" cx="225.44594594594594" cy="163.28378378378378" fill="#054080"></circle><circle id="r11C18" r="3.918918918918918" cx="250.3108108108108" cy="163.28378378378378" fill="#054080"></circle><circle id="r11C26" r="3.918918918918918" cx="349.77027027027026" cy="163.28378378378378" fill="#054080"></circle><circle id="r11C27" r="3.918918918918918" cx="362.2027027027027" cy="163.28378378378378" fill="#054080"></circle><circle id="r11C28" r="3.918918918918918" cx="374.6351351351351" cy="163.28378378378378" fill="#054080"></circle><circle id="r11C30" r="3.918918918918918" cx="399.5" cy="163.28378378378378" fill="#054080"></circle><circle id="r11C32" r="3.918918918918918" cx="424.36486486486484" cy="163.28378378378378" fill="#054080"></circle><circle id="r11C35" r="3.918918918918918" cx="461.66216216216213" cy="163.28378378378378" fill="#054080"></circle><circle id="r11C36" r="3.918918918918918" cx="474.0945945945946" cy="163.28378378378378" fill="#054080"></circle><circle id="r12C3" r="3.918918918918918" cx="63.824324324324316" cy="175.7162162162162" fill="#054080"></circle><circle id="r12C4" r="3.918918918918918" cx="76.25675675675676" cy="175.7162162162162" fill="#054080"></circle><circle id="r12C5" r="3.918918918918918" cx="88.6891891891892" cy="175.7162162162162" fill="#054080"></circle><circle id="r12C6" r="3.918918918918918" cx="101.12162162162161" cy="175.7162162162162" fill="#054080"></circle><circle id="r12C7" r="3.918918918918918" cx="113.55405405405405" cy="175.7162162162162" fill="#054080"></circle><circle id="r12C8" r="3.918918918918918" cx="125.98648648648648" cy="175.7162162162162" fill="#054080"></circle><circle id="r12C9" r="3.918918918918918" cx="138.4189189189189" cy="175.7162162162162" fill="#054080"></circle><circle id="r12C15" r="3.918918918918918" cx="213.01351351351352" cy="175.7162162162162" fill="#054080"></circle><circle id="r12C17" r="3.918918918918918" cx="237.87837837837836" cy="175.7162162162162" fill="#054080"></circle><circle id="r12C20" r="3.918918918918918" cx="275.1756756756757" cy="175.7162162162162" fill="#054080"></circle><circle id="r12C21" r="3.918918918918918" cx="287.60810810810807" cy="175.7162162162162" fill="#054080"></circle><circle id="r12C23" r="3.918918918918918" cx="312.47297297297297" cy="175.7162162162162" fill="#054080"></circle><circle id="r12C24" r="3.918918918918918" cx="324.90540540540536" cy="175.7162162162162" fill="#054080"></circle><circle id="r12C25" r="3.918918918918918" cx="337.3378378378378" cy="175.7162162162162" fill="#054080"></circle><circle id="r12C26" r="3.918918918918918" cx="349.77027027027026" cy="175.7162162162162" fill="#054080"></circle><circle id="r12C29" r="3.918918918918918" cx="387.06756756756755" cy="175.7162162162162" fill="#054080"></circle><circle id="r12C30" r="3.918918918918918" cx="399.5" cy="175.7162162162162" fill="#054080"></circle><circle id="r12C31" r="3.918918918918918" cx="411.9324324324324" cy="175.7162162162162" fill="#054080"></circle><circle id="r12C32" r="3.918918918918918" cx="424.36486486486484" cy="175.7162162162162" fill="#054080"></circle><circle id="r12C33" r="3.918918918918918" cx="436.7972972972973" cy="175.7162162162162" fill="#054080"></circle><circle id="r12C34" r="3.918918918918918" cx="449.2297297297297" cy="175.7162162162162" fill="#054080"></circle><circle id="r12C36" r="3.918918918918918" cx="474.0945945945946" cy="175.7162162162162" fill="#054080"></circle><circle id="r13C0" r="3.918918918918918" cx="26.527027027027028" cy="188.14864864864865" fill="#054080"></circle><circle id="r13C5" r="3.918918918918918" cx="88.6891891891892" cy="188.14864864864865" fill="#054080"></circle><circle id="r13C8" r="3.918918918918918" cx="125.98648648648648" cy="188.14864864864865" fill="#054080"></circle><circle id="r13C13" r="3.918918918918918" cx="188.14864864864865" cy="188.14864864864865" fill="#054080"></circle><circle id="r13C14" r="3.918918918918918" cx="200.58108108108107" cy="188.14864864864865" fill="#054080"></circle><circle id="r13C15" r="3.918918918918918" cx="213.01351351351352" cy="188.14864864864865" fill="#054080"></circle><circle id="r13C16" r="3.918918918918918" cx="225.44594594594594" cy="188.14864864864865" fill="#054080"></circle><circle id="r13C17" r="3.918918918918918" cx="237.87837837837836" cy="188.14864864864865" fill="#054080"></circle><circle id="r13C19" r="3.918918918918918" cx="262.7432432432432" cy="188.14864864864865" fill="#054080"></circle><circle id="r13C21" r="3.918918918918918" cx="287.60810810810807" cy="188.14864864864865" fill="#054080"></circle><circle id="r13C22" r="3.918918918918918" cx="300.0405405405405" cy="188.14864864864865" fill="#054080"></circle><circle id="r13C25" r="3.918918918918918" cx="337.3378378378378" cy="188.14864864864865" fill="#054080"></circle><circle id="r13C28" r="3.918918918918918" cx="374.6351351351351" cy="188.14864864864865" fill="#054080"></circle><circle id="r13C29" r="3.918918918918918" cx="387.06756756756755" cy="188.14864864864865" fill="#054080"></circle><circle id="r13C31" r="3.918918918918918" cx="411.9324324324324" cy="188.14864864864865" fill="#054080"></circle><circle id="r13C33" r="3.918918918918918" cx="436.7972972972973" cy="188.14864864864865" fill="#054080"></circle><circle id="r13C34" r="3.918918918918918" cx="449.2297297297297" cy="188.14864864864865" fill="#054080"></circle><circle id="r14C1" r="3.918918918918918" cx="38.95945945945946" cy="200.58108108108107" fill="#054080"></circle><circle id="r14C2" r="3.918918918918918" cx="51.39189189189189" cy="200.58108108108107" fill="#054080"></circle><circle id="r14C5" r="3.918918918918918" cx="88.6891891891892" cy="200.58108108108107" fill="#054080"></circle><circle id="r14C6" r="3.918918918918918" cx="101.12162162162161" cy="200.58108108108107" fill="#054080"></circle><circle id="r14C8" r="3.918918918918918" cx="125.98648648648648" cy="200.58108108108107" fill="#054080"></circle><circle id="r14C10" r="3.918918918918918" cx="150.85135135135135" cy="200.58108108108107" fill="#054080"></circle><circle id="r14C13" r="3.918918918918918" cx="188.14864864864865" cy="200.58108108108107" fill="#054080"></circle><circle id="r14C16" r="3.918918918918918" cx="225.44594594594594" cy="200.58108108108107" fill="#054080"></circle><circle id="r14C18" r="3.918918918918918" cx="250.3108108108108" cy="200.58108108108107" fill="#054080"></circle><circle id="r14C20" r="3.918918918918918" cx="275.1756756756757" cy="200.58108108108107" fill="#054080"></circle><circle id="r14C21" r="3.918918918918918" cx="287.60810810810807" cy="200.58108108108107" fill="#054080"></circle><circle id="r14C22" r="3.918918918918918" cx="300.0405405405405" cy="200.58108108108107" fill="#054080"></circle><circle id="r14C23" r="3.918918918918918" cx="312.47297297297297" cy="200.58108108108107" fill="#054080"></circle><circle id="r14C25" r="3.918918918918918" cx="337.3378378378378" cy="200.58108108108107" fill="#054080"></circle><circle id="r14C26" r="3.918918918918918" cx="349.77027027027026" cy="200.58108108108107" fill="#054080"></circle><circle id="r14C27" r="3.918918918918918" cx="362.2027027027027" cy="200.58108108108107" fill="#054080"></circle><circle id="r14C28" r="3.918918918918918" cx="374.6351351351351" cy="200.58108108108107" fill="#054080"></circle><circle id="r14C29" r="3.918918918918918" cx="387.06756756756755" cy="200.58108108108107" fill="#054080"></circle><circle id="r14C32" r="3.918918918918918" cx="424.36486486486484" cy="200.58108108108107" fill="#054080"></circle><circle id="r14C33" r="3.918918918918918" cx="436.7972972972973" cy="200.58108108108107" fill="#054080"></circle><circle id="r14C35" r="3.918918918918918" cx="461.66216216216213" cy="200.58108108108107" fill="#054080"></circle><circle id="r14C36" r="3.918918918918918" cx="474.0945945945946" cy="200.58108108108107" fill="#054080"></circle><circle id="r15C0" r="3.918918918918918" cx="26.527027027027028" cy="213.01351351351352" fill="#054080"></circle><circle id="r15C3" r="3.918918918918918" cx="63.824324324324316" cy="213.01351351351352" fill="#054080"></circle><circle id="r15C5" r="3.918918918918918" cx="88.6891891891892" cy="213.01351351351352" fill="#054080"></circle><circle id="r15C8" r="3.918918918918918" cx="125.98648648648648" cy="213.01351351351352" fill="#054080"></circle><circle id="r15C9" r="3.918918918918918" cx="138.4189189189189" cy="213.01351351351352" fill="#054080"></circle><circle id="r15C12" r="3.918918918918918" cx="175.7162162162162" cy="213.01351351351352" fill="#054080"></circle><circle id="r15C13" r="3.918918918918918" cx="188.14864864864865" cy="213.01351351351352" fill="#054080"></circle><circle id="r15C18" r="3.918918918918918" cx="250.3108108108108" cy="213.01351351351352" fill="#054080"></circle><circle id="r15C19" r="3.918918918918918" cx="262.7432432432432" cy="213.01351351351352" fill="#054080"></circle><circle id="r15C24" r="3.918918918918918" cx="324.90540540540536" cy="213.01351351351352" fill="#054080"></circle><circle id="r15C26" r="3.918918918918918" cx="349.77027027027026" cy="213.01351351351352" fill="#054080"></circle><circle id="r15C27" r="3.918918918918918" cx="362.2027027027027" cy="213.01351351351352" fill="#054080"></circle><circle id="r15C31" r="3.918918918918918" cx="411.9324324324324" cy="213.01351351351352" fill="#054080"></circle><circle id="r15C32" r="3.918918918918918" cx="424.36486486486484" cy="213.01351351351352" fill="#054080"></circle><circle id="r15C36" r="3.918918918918918" cx="474.0945945945946" cy="213.01351351351352" fill="#054080"></circle><circle id="r16C0" r="3.918918918918918" cx="26.527027027027028" cy="225.44594594594594" fill="#054080"></circle><circle id="r16C2" r="3.918918918918918" cx="51.39189189189189" cy="225.44594594594594" fill="#054080"></circle><circle id="r16C6" r="3.918918918918918" cx="101.12162162162161" cy="225.44594594594594" fill="#054080"></circle><circle id="r16C13" r="3.918918918918918" cx="188.14864864864865" cy="225.44594594594594" fill="#054080"></circle><circle id="r16C14" r="3.918918918918918" cx="200.58108108108107" cy="225.44594594594594" fill="#054080"></circle><circle id="r16C16" r="3.918918918918918" cx="225.44594594594594" cy="225.44594594594594" fill="#054080"></circle><circle id="r16C17" r="3.918918918918918" cx="237.87837837837836" cy="225.44594594594594" fill="#054080"></circle><circle id="r16C22" r="3.918918918918918" cx="300.0405405405405" cy="225.44594594594594" fill="#054080"></circle><circle id="r16C23" r="3.918918918918918" cx="312.47297297297297" cy="225.44594594594594" fill="#054080"></circle><circle id="r16C25" r="3.918918918918918" cx="337.3378378378378" cy="225.44594594594594" fill="#054080"></circle><circle id="r16C26" r="3.918918918918918" cx="349.77027027027026" cy="225.44594594594594" fill="#054080"></circle><circle id="r16C29" r="3.918918918918918" cx="387.06756756756755" cy="225.44594594594594" fill="#054080"></circle><circle id="r16C30" r="3.918918918918918" cx="399.5" cy="225.44594594594594" fill="#054080"></circle><circle id="r16C32" r="3.918918918918918" cx="424.36486486486484" cy="225.44594594594594" fill="#054080"></circle><circle id="r16C34" r="3.918918918918918" cx="449.2297297297297" cy="225.44594594594594" fill="#054080"></circle><circle id="r16C35" r="3.918918918918918" cx="461.66216216216213" cy="225.44594594594594" fill="#054080"></circle><circle id="r16C36" r="3.918918918918918" cx="474.0945945945946" cy="225.44594594594594" fill="#054080"></circle><circle id="r17C0" r="3.918918918918918" cx="26.527027027027028" cy="237.87837837837836" fill="#054080"></circle><circle id="r17C1" r="3.918918918918918" cx="38.95945945945946" cy="237.87837837837836" fill="#054080"></circle><circle id="r17C4" r="3.918918918918918" cx="76.25675675675676" cy="237.87837837837836" fill="#054080"></circle><circle id="r17C11" r="3.918918918918918" cx="163.28378378378378" cy="237.87837837837836" fill="#054080"></circle><circle id="r17C14" r="3.918918918918918" cx="200.58108108108107" cy="237.87837837837836" fill="#054080"></circle><circle id="r17C17" r="3.918918918918918" cx="237.87837837837836" cy="237.87837837837836" fill="#054080"></circle><circle id="r17C18" r="3.918918918918918" cx="250.3108108108108" cy="237.87837837837836" fill="#054080"></circle><circle id="r17C19" r="3.918918918918918" cx="262.7432432432432" cy="237.87837837837836" fill="#054080"></circle><circle id="r17C21" r="3.918918918918918" cx="287.60810810810807" cy="237.87837837837836" fill="#054080"></circle><circle id="r17C24" r="3.918918918918918" cx="324.90540540540536" cy="237.87837837837836" fill="#054080"></circle><circle id="r17C25" r="3.918918918918918" cx="337.3378378378378" cy="237.87837837837836" fill="#054080"></circle><circle id="r17C28" r="3.918918918918918" cx="374.6351351351351" cy="237.87837837837836" fill="#054080"></circle><circle id="r17C33" r="3.918918918918918" cx="436.7972972972973" cy="237.87837837837836" fill="#054080"></circle><circle id="r17C34" r="3.918918918918918" cx="449.2297297297297" cy="237.87837837837836" fill="#054080"></circle><circle id="r18C0" r="3.918918918918918" cx="26.527027027027028" cy="250.3108108108108" fill="#054080"></circle><circle id="r18C1" r="3.918918918918918" cx="38.95945945945946" cy="250.3108108108108" fill="#054080"></circle><circle id="r18C6" r="3.918918918918918" cx="101.12162162162161" cy="250.3108108108108" fill="#054080"></circle><circle id="r18C7" r="3.918918918918918" cx="113.55405405405405" cy="250.3108108108108" fill="#054080"></circle><circle id="r18C9" r="3.918918918918918" cx="138.4189189189189" cy="250.3108108108108" fill="#054080"></circle><circle id="r18C11" r="3.918918918918918" cx="163.28378378378378" cy="250.3108108108108" fill="#054080"></circle><circle id="r18C13" r="3.918918918918918" cx="188.14864864864865" cy="250.3108108108108" fill="#054080"></circle><circle id="r18C14" r="3.918918918918918" cx="200.58108108108107" cy="250.3108108108108" fill="#054080"></circle><circle id="r18C15" r="3.918918918918918" cx="213.01351351351352" cy="250.3108108108108" fill="#054080"></circle><circle id="r18C16" r="3.918918918918918" cx="225.44594594594594" cy="250.3108108108108" fill="#054080"></circle><circle id="r18C17" r="3.918918918918918" cx="237.87837837837836" cy="250.3108108108108" fill="#054080"></circle><circle id="r18C18" r="3.918918918918918" cx="250.3108108108108" cy="250.3108108108108" fill="#054080"></circle><circle id="r18C19" r="3.918918918918918" cx="262.7432432432432" cy="250.3108108108108" fill="#054080"></circle><circle id="r18C20" r="3.918918918918918" cx="275.1756756756757" cy="250.3108108108108" fill="#054080"></circle><circle id="r18C23" r="3.918918918918918" cx="312.47297297297297" cy="250.3108108108108" fill="#054080"></circle><circle id="r18C27" r="3.918918918918918" cx="362.2027027027027" cy="250.3108108108108" fill="#054080"></circle><circle id="r18C28" r="3.918918918918918" cx="374.6351351351351" cy="250.3108108108108" fill="#054080"></circle><circle id="r18C30" r="3.918918918918918" cx="399.5" cy="250.3108108108108" fill="#054080"></circle><circle id="r18C32" r="3.918918918918918" cx="424.36486486486484" cy="250.3108108108108" fill="#054080"></circle><circle id="r18C33" r="3.918918918918918" cx="436.7972972972973" cy="250.3108108108108" fill="#054080"></circle><circle id="r18C35" r="3.918918918918918" cx="461.66216216216213" cy="250.3108108108108" fill="#054080"></circle><circle id="r18C36" r="3.918918918918918" cx="474.0945945945946" cy="250.3108108108108" fill="#054080"></circle><circle id="r19C0" r="3.918918918918918" cx="26.527027027027028" cy="262.7432432432432" fill="#054080"></circle><circle id="r19C1" r="3.918918918918918" cx="38.95945945945946" cy="262.7432432432432" fill="#054080"></circle><circle id="r19C3" r="3.918918918918918" cx="63.824324324324316" cy="262.7432432432432" fill="#054080"></circle><circle id="r19C5" r="3.918918918918918" cx="88.6891891891892" cy="262.7432432432432" fill="#054080"></circle><circle id="r19C8" r="3.918918918918918" cx="125.98648648648648" cy="262.7432432432432" fill="#054080"></circle><circle id="r19C10" r="3.918918918918918" cx="150.85135135135135" cy="262.7432432432432" fill="#054080"></circle><circle id="r19C13" r="3.918918918918918" cx="188.14864864864865" cy="262.7432432432432" fill="#054080"></circle><circle id="r19C16" r="3.918918918918918" cx="225.44594594594594" cy="262.7432432432432" fill="#054080"></circle><circle id="r19C21" r="3.918918918918918" cx="287.60810810810807" cy="262.7432432432432" fill="#054080"></circle><circle id="r19C22" r="3.918918918918918" cx="300.0405405405405" cy="262.7432432432432" fill="#054080"></circle><circle id="r19C24" r="3.918918918918918" cx="324.90540540540536" cy="262.7432432432432" fill="#054080"></circle><circle id="r19C26" r="3.918918918918918" cx="349.77027027027026" cy="262.7432432432432" fill="#054080"></circle><circle id="r19C28" r="3.918918918918918" cx="374.6351351351351" cy="262.7432432432432" fill="#054080"></circle><circle id="r19C29" r="3.918918918918918" cx="387.06756756756755" cy="262.7432432432432" fill="#054080"></circle><circle id="r19C36" r="3.918918918918918" cx="474.0945945945946" cy="262.7432432432432" fill="#054080"></circle><circle id="r20C1" r="3.918918918918918" cx="38.95945945945946" cy="275.1756756756757" fill="#054080"></circle><circle id="r20C3" r="3.918918918918918" cx="63.824324324324316" cy="275.1756756756757" fill="#054080"></circle><circle id="r20C4" r="3.918918918918918" cx="76.25675675675676" cy="275.1756756756757" fill="#054080"></circle><circle id="r20C6" r="3.918918918918918" cx="101.12162162162161" cy="275.1756756756757" fill="#054080"></circle><circle id="r20C8" r="3.918918918918918" cx="125.98648648648648" cy="275.1756756756757" fill="#054080"></circle><circle id="r20C9" r="3.918918918918918" cx="138.4189189189189" cy="275.1756756756757" fill="#054080"></circle><circle id="r20C10" r="3.918918918918918" cx="150.85135135135135" cy="275.1756756756757" fill="#054080"></circle><circle id="r20C11" r="3.918918918918918" cx="163.28378378378378" cy="275.1756756756757" fill="#054080"></circle><circle id="r20C12" r="3.918918918918918" cx="175.7162162162162" cy="275.1756756756757" fill="#054080"></circle><circle id="r20C13" r="3.918918918918918" cx="188.14864864864865" cy="275.1756756756757" fill="#054080"></circle><circle id="r20C15" r="3.918918918918918" cx="213.01351351351352" cy="275.1756756756757" fill="#054080"></circle><circle id="r20C16" r="3.918918918918918" cx="225.44594594594594" cy="275.1756756756757" fill="#054080"></circle><circle id="r20C17" r="3.918918918918918" cx="237.87837837837836" cy="275.1756756756757" fill="#054080"></circle><circle id="r20C19" r="3.918918918918918" cx="262.7432432432432" cy="275.1756756756757" fill="#054080"></circle><circle id="r20C20" r="3.918918918918918" cx="275.1756756756757" cy="275.1756756756757" fill="#054080"></circle><circle id="r20C22" r="3.918918918918918" cx="300.0405405405405" cy="275.1756756756757" fill="#054080"></circle><circle id="r20C24" r="3.918918918918918" cx="324.90540540540536" cy="275.1756756756757" fill="#054080"></circle><circle id="r20C25" r="3.918918918918918" cx="337.3378378378378" cy="275.1756756756757" fill="#054080"></circle><circle id="r20C26" r="3.918918918918918" cx="349.77027027027026" cy="275.1756756756757" fill="#054080"></circle><circle id="r20C29" r="3.918918918918918" cx="387.06756756756755" cy="275.1756756756757" fill="#054080"></circle><circle id="r20C30" r="3.918918918918918" cx="399.5" cy="275.1756756756757" fill="#054080"></circle><circle id="r20C31" r="3.918918918918918" cx="411.9324324324324" cy="275.1756756756757" fill="#054080"></circle><circle id="r20C32" r="3.918918918918918" cx="424.36486486486484" cy="275.1756756756757" fill="#054080"></circle><circle id="r20C34" r="3.918918918918918" cx="449.2297297297297" cy="275.1756756756757" fill="#054080"></circle><circle id="r20C35" r="3.918918918918918" cx="461.66216216216213" cy="275.1756756756757" fill="#054080"></circle><circle id="r21C1" r="3.918918918918918" cx="38.95945945945946" cy="287.60810810810807" fill="#054080"></circle><circle id="r21C3" r="3.918918918918918" cx="63.824324324324316" cy="287.60810810810807" fill="#054080"></circle><circle id="r21C4" r="3.918918918918918" cx="76.25675675675676" cy="287.60810810810807" fill="#054080"></circle><circle id="r21C8" r="3.918918918918918" cx="125.98648648648648" cy="287.60810810810807" fill="#054080"></circle><circle id="r21C9" r="3.918918918918918" cx="138.4189189189189" cy="287.60810810810807" fill="#054080"></circle><circle id="r21C18" r="3.918918918918918" cx="250.3108108108108" cy="287.60810810810807" fill="#054080"></circle><circle id="r21C19" r="3.918918918918918" cx="262.7432432432432" cy="287.60810810810807" fill="#054080"></circle><circle id="r21C20" r="3.918918918918918" cx="275.1756756756757" cy="287.60810810810807" fill="#054080"></circle><circle id="r21C21" r="3.918918918918918" cx="287.60810810810807" cy="287.60810810810807" fill="#054080"></circle><circle id="r21C22" r="3.918918918918918" cx="300.0405405405405" cy="287.60810810810807" fill="#054080"></circle><circle id="r21C31" r="3.918918918918918" cx="411.9324324324324" cy="287.60810810810807" fill="#054080"></circle><circle id="r21C34" r="3.918918918918918" cx="449.2297297297297" cy="287.60810810810807" fill="#054080"></circle><circle id="r21C35" r="3.918918918918918" cx="461.66216216216213" cy="287.60810810810807" fill="#054080"></circle><circle id="r22C0" r="3.918918918918918" cx="26.527027027027028" cy="300.0405405405405" fill="#054080"></circle><circle id="r22C6" r="3.918918918918918" cx="101.12162162162161" cy="300.0405405405405" fill="#054080"></circle><circle id="r22C10" r="3.918918918918918" cx="150.85135135135135" cy="300.0405405405405" fill="#054080"></circle><circle id="r22C11" r="3.918918918918918" cx="163.28378378378378" cy="300.0405405405405" fill="#054080"></circle><circle id="r22C19" r="3.918918918918918" cx="262.7432432432432" cy="300.0405405405405" fill="#054080"></circle><circle id="r22C23" r="3.918918918918918" cx="312.47297297297297" cy="300.0405405405405" fill="#054080"></circle><circle id="r22C26" r="3.918918918918918" cx="349.77027027027026" cy="300.0405405405405" fill="#054080"></circle><circle id="r22C27" r="3.918918918918918" cx="362.2027027027027" cy="300.0405405405405" fill="#054080"></circle><circle id="r22C29" r="3.918918918918918" cx="387.06756756756755" cy="300.0405405405405" fill="#054080"></circle><circle id="r22C35" r="3.918918918918918" cx="461.66216216216213" cy="300.0405405405405" fill="#054080"></circle><circle id="r22C36" r="3.918918918918918" cx="474.0945945945946" cy="300.0405405405405" fill="#054080"></circle><circle id="r23C1" r="3.918918918918918" cx="38.95945945945946" cy="312.47297297297297" fill="#054080"></circle><circle id="r23C3" r="3.918918918918918" cx="63.824324324324316" cy="312.47297297297297" fill="#054080"></circle><circle id="r23C4" r="3.918918918918918" cx="76.25675675675676" cy="312.47297297297297" fill="#054080"></circle><circle id="r23C8" r="3.918918918918918" cx="125.98648648648648" cy="312.47297297297297" fill="#054080"></circle><circle id="r23C9" r="3.918918918918918" cx="138.4189189189189" cy="312.47297297297297" fill="#054080"></circle><circle id="r23C11" r="3.918918918918918" cx="163.28378378378378" cy="312.47297297297297" fill="#054080"></circle><circle id="r23C12" r="3.918918918918918" cx="175.7162162162162" cy="312.47297297297297" fill="#054080"></circle><circle id="r23C13" r="3.918918918918918" cx="188.14864864864865" cy="312.47297297297297" fill="#054080"></circle><circle id="r23C14" r="3.918918918918918" cx="200.58108108108107" cy="312.47297297297297" fill="#054080"></circle><circle id="r23C16" r="3.918918918918918" cx="225.44594594594594" cy="312.47297297297297" fill="#054080"></circle><circle id="r23C19" r="3.918918918918918" cx="262.7432432432432" cy="312.47297297297297" fill="#054080"></circle><circle id="r23C24" r="3.918918918918918" cx="324.90540540540536" cy="312.47297297297297" fill="#054080"></circle><circle id="r23C26" r="3.918918918918918" cx="349.77027027027026" cy="312.47297297297297" fill="#054080"></circle><circle id="r23C31" r="3.918918918918918" cx="411.9324324324324" cy="312.47297297297297" fill="#054080"></circle><circle id="r23C35" r="3.918918918918918" cx="461.66216216216213" cy="312.47297297297297" fill="#054080"></circle><circle id="r23C36" r="3.918918918918918" cx="474.0945945945946" cy="312.47297297297297" fill="#054080"></circle><circle id="r24C3" r="3.918918918918918" cx="63.824324324324316" cy="324.90540540540536" fill="#054080"></circle><circle id="r24C6" r="3.918918918918918" cx="101.12162162162161" cy="324.90540540540536" fill="#054080"></circle><circle id="r24C12" r="3.918918918918918" cx="175.7162162162162" cy="324.90540540540536" fill="#054080"></circle><circle id="r24C14" r="3.918918918918918" cx="200.58108108108107" cy="324.90540540540536" fill="#054080"></circle><circle id="r24C15" r="3.918918918918918" cx="213.01351351351352" cy="324.90540540540536" fill="#054080"></circle><circle id="r24C16" r="3.918918918918918" cx="225.44594594594594" cy="324.90540540540536" fill="#054080"></circle><circle id="r24C18" r="3.918918918918918" cx="250.3108108108108" cy="324.90540540540536" fill="#054080"></circle><circle id="r24C19" r="3.918918918918918" cx="262.7432432432432" cy="324.90540540540536" fill="#054080"></circle><circle id="r24C21" r="3.918918918918918" cx="287.60810810810807" cy="324.90540540540536" fill="#054080"></circle><circle id="r24C23" r="3.918918918918918" cx="312.47297297297297" cy="324.90540540540536" fill="#054080"></circle><circle id="r24C24" r="3.918918918918918" cx="324.90540540540536" cy="324.90540540540536" fill="#054080"></circle><circle id="r24C25" r="3.918918918918918" cx="337.3378378378378" cy="324.90540540540536" fill="#054080"></circle><circle id="r24C26" r="3.918918918918918" cx="349.77027027027026" cy="324.90540540540536" fill="#054080"></circle><circle id="r24C29" r="3.918918918918918" cx="387.06756756756755" cy="324.90540540540536" fill="#054080"></circle><circle id="r24C30" r="3.918918918918918" cx="399.5" cy="324.90540540540536" fill="#054080"></circle><circle id="r24C32" r="3.918918918918918" cx="424.36486486486484" cy="324.90540540540536" fill="#054080"></circle><circle id="r24C33" r="3.918918918918918" cx="436.7972972972973" cy="324.90540540540536" fill="#054080"></circle><circle id="r24C34" r="3.918918918918918" cx="449.2297297297297" cy="324.90540540540536" fill="#054080"></circle><circle id="r24C36" r="3.918918918918918" cx="474.0945945945946" cy="324.90540540540536" fill="#054080"></circle><circle id="r25C0" r="3.918918918918918" cx="26.527027027027028" cy="337.3378378378378" fill="#054080"></circle><circle id="r25C2" r="3.918918918918918" cx="51.39189189189189" cy="337.3378378378378" fill="#054080"></circle><circle id="r25C7" r="3.918918918918918" cx="113.55405405405405" cy="337.3378378378378" fill="#054080"></circle><circle id="r25C8" r="3.918918918918918" cx="125.98648648648648" cy="337.3378378378378" fill="#054080"></circle><circle id="r25C11" r="3.918918918918918" cx="163.28378378378378" cy="337.3378378378378" fill="#054080"></circle><circle id="r25C17" r="3.918918918918918" cx="237.87837837837836" cy="337.3378378378378" fill="#054080"></circle><circle id="r25C20" r="3.918918918918918" cx="275.1756756756757" cy="337.3378378378378" fill="#054080"></circle><circle id="r25C21" r="3.918918918918918" cx="287.60810810810807" cy="337.3378378378378" fill="#054080"></circle><circle id="r25C24" r="3.918918918918918" cx="324.90540540540536" cy="337.3378378378378" fill="#054080"></circle><circle id="r25C26" r="3.918918918918918" cx="349.77027027027026" cy="337.3378378378378" fill="#054080"></circle><circle id="r25C31" r="3.918918918918918" cx="411.9324324324324" cy="337.3378378378378" fill="#054080"></circle><circle id="r26C0" r="3.918918918918918" cx="26.527027027027028" cy="349.77027027027026" fill="#054080"></circle><circle id="r26C3" r="3.918918918918918" cx="63.824324324324316" cy="349.77027027027026" fill="#054080"></circle><circle id="r26C4" r="3.918918918918918" cx="76.25675675675676" cy="349.77027027027026" fill="#054080"></circle><circle id="r26C5" r="3.918918918918918" cx="88.6891891891892" cy="349.77027027027026" fill="#054080"></circle><circle id="r26C6" r="3.918918918918918" cx="101.12162162162161" cy="349.77027027027026" fill="#054080"></circle><circle id="r26C8" r="3.918918918918918" cx="125.98648648648648" cy="349.77027027027026" fill="#054080"></circle><circle id="r26C9" r="3.918918918918918" cx="138.4189189189189" cy="349.77027027027026" fill="#054080"></circle><circle id="r26C13" r="3.918918918918918" cx="188.14864864864865" cy="349.77027027027026" fill="#054080"></circle><circle id="r26C15" r="3.918918918918918" cx="213.01351351351352" cy="349.77027027027026" fill="#054080"></circle><circle id="r26C19" r="3.918918918918918" cx="262.7432432432432" cy="349.77027027027026" fill="#054080"></circle><circle id="r26C20" r="3.918918918918918" cx="275.1756756756757" cy="349.77027027027026" fill="#054080"></circle><circle id="r26C22" r="3.918918918918918" cx="300.0405405405405" cy="349.77027027027026" fill="#054080"></circle><circle id="r26C24" r="3.918918918918918" cx="324.90540540540536" cy="349.77027027027026" fill="#054080"></circle><circle id="r26C25" r="3.918918918918918" cx="337.3378378378378" cy="349.77027027027026" fill="#054080"></circle><circle id="r26C26" r="3.918918918918918" cx="349.77027027027026" cy="349.77027027027026" fill="#054080"></circle><circle id="r26C27" r="3.918918918918918" cx="362.2027027027027" cy="349.77027027027026" fill="#054080"></circle><circle id="r26C28" r="3.918918918918918" cx="374.6351351351351" cy="349.77027027027026" fill="#054080"></circle><circle id="r26C30" r="3.918918918918918" cx="399.5" cy="349.77027027027026" fill="#054080"></circle><circle id="r26C31" r="3.918918918918918" cx="411.9324324324324" cy="349.77027027027026" fill="#054080"></circle><circle id="r26C33" r="3.918918918918918" cx="436.7972972972973" cy="349.77027027027026" fill="#054080"></circle><circle id="r26C35" r="3.918918918918918" cx="461.66216216216213" cy="349.77027027027026" fill="#054080"></circle><circle id="r26C36" r="3.918918918918918" cx="474.0945945945946" cy="349.77027027027026" fill="#054080"></circle><circle id="r27C0" r="3.918918918918918" cx="26.527027027027028" cy="362.2027027027027" fill="#054080"></circle><circle id="r27C3" r="3.918918918918918" cx="63.824324324324316" cy="362.2027027027027" fill="#054080"></circle><circle id="r27C4" r="3.918918918918918" cx="76.25675675675676" cy="362.2027027027027" fill="#054080"></circle><circle id="r27C5" r="3.918918918918918" cx="88.6891891891892" cy="362.2027027027027" fill="#054080"></circle><circle id="r27C7" r="3.918918918918918" cx="113.55405405405405" cy="362.2027027027027" fill="#054080"></circle><circle id="r27C9" r="3.918918918918918" cx="138.4189189189189" cy="362.2027027027027" fill="#054080"></circle><circle id="r27C10" r="3.918918918918918" cx="150.85135135135135" cy="362.2027027027027" fill="#054080"></circle><circle id="r27C11" r="3.918918918918918" cx="163.28378378378378" cy="362.2027027027027" fill="#054080"></circle><circle id="r27C14" r="3.918918918918918" cx="200.58108108108107" cy="362.2027027027027" fill="#054080"></circle><circle id="r27C18" r="3.918918918918918" cx="250.3108108108108" cy="362.2027027027027" fill="#054080"></circle><circle id="r27C19" r="3.918918918918918" cx="262.7432432432432" cy="362.2027027027027" fill="#054080"></circle><circle id="r27C20" r="3.918918918918918" cx="275.1756756756757" cy="362.2027027027027" fill="#054080"></circle><circle id="r27C22" r="3.918918918918918" cx="300.0405405405405" cy="362.2027027027027" fill="#054080"></circle><circle id="r27C26" r="3.918918918918918" cx="349.77027027027026" cy="362.2027027027027" fill="#054080"></circle><circle id="r27C28" r="3.918918918918918" cx="374.6351351351351" cy="362.2027027027027" fill="#054080"></circle><circle id="r27C29" r="3.918918918918918" cx="387.06756756756755" cy="362.2027027027027" fill="#054080"></circle><circle id="r27C31" r="3.918918918918918" cx="411.9324324324324" cy="362.2027027027027" fill="#054080"></circle><circle id="r27C36" r="3.918918918918918" cx="474.0945945945946" cy="362.2027027027027" fill="#054080"></circle><circle id="r28C0" r="3.918918918918918" cx="26.527027027027028" cy="374.6351351351351" fill="#054080"></circle><circle id="r28C2" r="3.918918918918918" cx="51.39189189189189" cy="374.6351351351351" fill="#054080"></circle><circle id="r28C6" r="3.918918918918918" cx="101.12162162162161" cy="374.6351351351351" fill="#054080"></circle><circle id="r28C7" r="3.918918918918918" cx="113.55405405405405" cy="374.6351351351351" fill="#054080"></circle><circle id="r28C8" r="3.918918918918918" cx="125.98648648648648" cy="374.6351351351351" fill="#054080"></circle><circle id="r28C10" r="3.918918918918918" cx="150.85135135135135" cy="374.6351351351351" fill="#054080"></circle><circle id="r28C11" r="3.918918918918918" cx="163.28378378378378" cy="374.6351351351351" fill="#054080"></circle><circle id="r28C12" r="3.918918918918918" cx="175.7162162162162" cy="374.6351351351351" fill="#054080"></circle><circle id="r28C13" r="3.918918918918918" cx="188.14864864864865" cy="374.6351351351351" fill="#054080"></circle><circle id="r28C14" r="3.918918918918918" cx="200.58108108108107" cy="374.6351351351351" fill="#054080"></circle><circle id="r28C17" r="3.918918918918918" cx="237.87837837837836" cy="374.6351351351351" fill="#054080"></circle><circle id="r28C18" r="3.918918918918918" cx="250.3108108108108" cy="374.6351351351351" fill="#054080"></circle><circle id="r28C19" r="3.918918918918918" cx="262.7432432432432" cy="374.6351351351351" fill="#054080"></circle><circle id="r28C20" r="3.918918918918918" cx="275.1756756756757" cy="374.6351351351351" fill="#054080"></circle><circle id="r28C24" r="3.918918918918918" cx="324.90540540540536" cy="374.6351351351351" fill="#054080"></circle><circle id="r28C25" r="3.918918918918918" cx="337.3378378378378" cy="374.6351351351351" fill="#054080"></circle><circle id="r28C26" r="3.918918918918918" cx="349.77027027027026" cy="374.6351351351351" fill="#054080"></circle><circle id="r28C28" r="3.918918918918918" cx="374.6351351351351" cy="374.6351351351351" fill="#054080"></circle><circle id="r28C29" r="3.918918918918918" cx="387.06756756756755" cy="374.6351351351351" fill="#054080"></circle><circle id="r28C30" r="3.918918918918918" cx="399.5" cy="374.6351351351351" fill="#054080"></circle><circle id="r28C31" r="3.918918918918918" cx="411.9324324324324" cy="374.6351351351351" fill="#054080"></circle><circle id="r28C32" r="3.918918918918918" cx="424.36486486486484" cy="374.6351351351351" fill="#054080"></circle><circle id="r28C34" r="3.918918918918918" cx="449.2297297297297" cy="374.6351351351351" fill="#054080"></circle><circle id="r28C35" r="3.918918918918918" cx="461.66216216216213" cy="374.6351351351351" fill="#054080"></circle><circle id="r29C8" r="3.918918918918918" cx="125.98648648648648" cy="387.06756756756755" fill="#054080"></circle><circle id="r29C9" r="3.918918918918918" cx="138.4189189189189" cy="387.06756756756755" fill="#054080"></circle><circle id="r29C11" r="3.918918918918918" cx="163.28378378378378" cy="387.06756756756755" fill="#054080"></circle><circle id="r29C12" r="3.918918918918918" cx="175.7162162162162" cy="387.06756756756755" fill="#054080"></circle><circle id="r29C13" r="3.918918918918918" cx="188.14864864864865" cy="387.06756756756755" fill="#054080"></circle><circle id="r29C14" r="3.918918918918918" cx="200.58108108108107" cy="387.06756756756755" fill="#054080"></circle><circle id="r29C17" r="3.918918918918918" cx="237.87837837837836" cy="387.06756756756755" fill="#054080"></circle><circle id="r29C18" r="3.918918918918918" cx="250.3108108108108" cy="387.06756756756755" fill="#054080"></circle><circle id="r29C20" r="3.918918918918918" cx="275.1756756756757" cy="387.06756756756755" fill="#054080"></circle><circle id="r29C21" r="3.918918918918918" cx="287.60810810810807" cy="387.06756756756755" fill="#054080"></circle><circle id="r29C28" r="3.918918918918918" cx="374.6351351351351" cy="387.06756756756755" fill="#054080"></circle><circle id="r29C32" r="3.918918918918918" cx="424.36486486486484" cy="387.06756756756755" fill="#054080"></circle><circle id="r29C35" r="3.918918918918918" cx="461.66216216216213" cy="387.06756756756755" fill="#054080"></circle><circle id="r30C9" r="3.918918918918918" cx="138.4189189189189" cy="399.5" fill="#054080"></circle><circle id="r30C12" r="3.918918918918918" cx="175.7162162162162" cy="399.5" fill="#054080"></circle><circle id="r30C13" r="3.918918918918918" cx="188.14864864864865" cy="399.5" fill="#054080"></circle><circle id="r30C16" r="3.918918918918918" cx="225.44594594594594" cy="399.5" fill="#054080"></circle><circle id="r30C17" r="3.918918918918918" cx="237.87837837837836" cy="399.5" fill="#054080"></circle><circle id="r30C19" r="3.918918918918918" cx="262.7432432432432" cy="399.5" fill="#054080"></circle><circle id="r30C20" r="3.918918918918918" cx="275.1756756756757" cy="399.5" fill="#054080"></circle><circle id="r30C22" r="3.918918918918918" cx="300.0405405405405" cy="399.5" fill="#054080"></circle><circle id="r30C28" r="3.918918918918918" cx="374.6351351351351" cy="399.5" fill="#054080"></circle><circle id="r30C30" r="3.918918918918918" cx="399.5" cy="399.5" fill="#054080"></circle><circle id="r30C32" r="3.918918918918918" cx="424.36486486486484" cy="399.5" fill="#054080"></circle><circle id="r30C33" r="3.918918918918918" cx="436.7972972972973" cy="399.5" fill="#054080"></circle><circle id="r30C35" r="3.918918918918918" cx="461.66216216216213" cy="399.5" fill="#054080"></circle><circle id="r30C36" r="3.918918918918918" cx="474.0945945945946" cy="399.5" fill="#054080"></circle><circle id="r31C10" r="3.918918918918918" cx="150.85135135135135" cy="411.9324324324324" fill="#054080"></circle><circle id="r31C11" r="3.918918918918918" cx="163.28378378378378" cy="411.9324324324324" fill="#054080"></circle><circle id="r31C13" r="3.918918918918918" cx="188.14864864864865" cy="411.9324324324324" fill="#054080"></circle><circle id="r31C16" r="3.918918918918918" cx="225.44594594594594" cy="411.9324324324324" fill="#054080"></circle><circle id="r31C17" r="3.918918918918918" cx="237.87837837837836" cy="411.9324324324324" fill="#054080"></circle><circle id="r31C19" r="3.918918918918918" cx="262.7432432432432" cy="411.9324324324324" fill="#054080"></circle><circle id="r31C20" r="3.918918918918918" cx="275.1756756756757" cy="411.9324324324324" fill="#054080"></circle><circle id="r31C21" r="3.918918918918918" cx="287.60810810810807" cy="411.9324324324324" fill="#054080"></circle><circle id="r31C22" r="3.918918918918918" cx="300.0405405405405" cy="411.9324324324324" fill="#054080"></circle><circle id="r31C23" r="3.918918918918918" cx="312.47297297297297" cy="411.9324324324324" fill="#054080"></circle><circle id="r31C26" r="3.918918918918918" cx="349.77027027027026" cy="411.9324324324324" fill="#054080"></circle><circle id="r31C28" r="3.918918918918918" cx="374.6351351351351" cy="411.9324324324324" fill="#054080"></circle><circle id="r31C32" r="3.918918918918918" cx="424.36486486486484" cy="411.9324324324324" fill="#054080"></circle><circle id="r31C35" r="3.918918918918918" cx="461.66216216216213" cy="411.9324324324324" fill="#054080"></circle><circle id="r31C36" r="3.918918918918918" cx="474.0945945945946" cy="411.9324324324324" fill="#054080"></circle><circle id="r32C8" r="3.918918918918918" cx="125.98648648648648" cy="424.36486486486484" fill="#054080"></circle><circle id="r32C13" r="3.918918918918918" cx="188.14864864864865" cy="424.36486486486484" fill="#054080"></circle><circle id="r32C15" r="3.918918918918918" cx="213.01351351351352" cy="424.36486486486484" fill="#054080"></circle><circle id="r32C16" r="3.918918918918918" cx="225.44594594594594" cy="424.36486486486484" fill="#054080"></circle><circle id="r32C17" r="3.918918918918918" cx="237.87837837837836" cy="424.36486486486484" fill="#054080"></circle><circle id="r32C19" r="3.918918918918918" cx="262.7432432432432" cy="424.36486486486484" fill="#054080"></circle><circle id="r32C20" r="3.918918918918918" cx="275.1756756756757" cy="424.36486486486484" fill="#054080"></circle><circle id="r32C21" r="3.918918918918918" cx="287.60810810810807" cy="424.36486486486484" fill="#054080"></circle><circle id="r32C22" r="3.918918918918918" cx="300.0405405405405" cy="424.36486486486484" fill="#054080"></circle><circle id="r32C23" r="3.918918918918918" cx="312.47297297297297" cy="424.36486486486484" fill="#054080"></circle><circle id="r32C25" r="3.918918918918918" cx="337.3378378378378" cy="424.36486486486484" fill="#054080"></circle><circle id="r32C26" r="3.918918918918918" cx="349.77027027027026" cy="424.36486486486484" fill="#054080"></circle><circle id="r32C27" r="3.918918918918918" cx="362.2027027027027" cy="424.36486486486484" fill="#054080"></circle><circle id="r32C28" r="3.918918918918918" cx="374.6351351351351" cy="424.36486486486484" fill="#054080"></circle><circle id="r32C29" r="3.918918918918918" cx="387.06756756756755" cy="424.36486486486484" fill="#054080"></circle><circle id="r32C30" r="3.918918918918918" cx="399.5" cy="424.36486486486484" fill="#054080"></circle><circle id="r32C31" r="3.918918918918918" cx="411.9324324324324" cy="424.36486486486484" fill="#054080"></circle><circle id="r32C32" r="3.918918918918918" cx="424.36486486486484" cy="424.36486486486484" fill="#054080"></circle><circle id="r32C34" r="3.918918918918918" cx="449.2297297297297" cy="424.36486486486484" fill="#054080"></circle><circle id="r33C8" r="3.918918918918918" cx="125.98648648648648" cy="436.7972972972973" fill="#054080"></circle><circle id="r33C10" r="3.918918918918918" cx="150.85135135135135" cy="436.7972972972973" fill="#054080"></circle><circle id="r33C11" r="3.918918918918918" cx="163.28378378378378" cy="436.7972972972973" fill="#054080"></circle><circle id="r33C12" r="3.918918918918918" cx="175.7162162162162" cy="436.7972972972973" fill="#054080"></circle><circle id="r33C13" r="3.918918918918918" cx="188.14864864864865" cy="436.7972972972973" fill="#054080"></circle><circle id="r33C14" r="3.918918918918918" cx="200.58108108108107" cy="436.7972972972973" fill="#054080"></circle><circle id="r33C15" r="3.918918918918918" cx="213.01351351351352" cy="436.7972972972973" fill="#054080"></circle><circle id="r33C16" r="3.918918918918918" cx="225.44594594594594" cy="436.7972972972973" fill="#054080"></circle><circle id="r33C17" r="3.918918918918918" cx="237.87837837837836" cy="436.7972972972973" fill="#054080"></circle><circle id="r33C18" r="3.918918918918918" cx="250.3108108108108" cy="436.7972972972973" fill="#054080"></circle><circle id="r33C19" r="3.918918918918918" cx="262.7432432432432" cy="436.7972972972973" fill="#054080"></circle><circle id="r33C20" r="3.918918918918918" cx="275.1756756756757" cy="436.7972972972973" fill="#054080"></circle><circle id="r33C21" r="3.918918918918918" cx="287.60810810810807" cy="436.7972972972973" fill="#054080"></circle><circle id="r33C22" r="3.918918918918918" cx="300.0405405405405" cy="436.7972972972973" fill="#054080"></circle><circle id="r33C23" r="3.918918918918918" cx="312.47297297297297" cy="436.7972972972973" fill="#054080"></circle><circle id="r33C28" r="3.918918918918918" cx="374.6351351351351" cy="436.7972972972973" fill="#054080"></circle><circle id="r33C30" r="3.918918918918918" cx="399.5" cy="436.7972972972973" fill="#054080"></circle><circle id="r33C32" r="3.918918918918918" cx="424.36486486486484" cy="436.7972972972973" fill="#054080"></circle><circle id="r34C8" r="3.918918918918918" cx="125.98648648648648" cy="449.2297297297297" fill="#054080"></circle><circle id="r34C10" r="3.918918918918918" cx="150.85135135135135" cy="449.2297297297297" fill="#054080"></circle><circle id="r34C12" r="3.918918918918918" cx="175.7162162162162" cy="449.2297297297297" fill="#054080"></circle><circle id="r34C25" r="3.918918918918918" cx="337.3378378378378" cy="449.2297297297297" fill="#054080"></circle><circle id="r34C28" r="3.918918918918918" cx="374.6351351351351" cy="449.2297297297297" fill="#054080"></circle><circle id="r34C29" r="3.918918918918918" cx="387.06756756756755" cy="449.2297297297297" fill="#054080"></circle><circle id="r34C31" r="3.918918918918918" cx="411.9324324324324" cy="449.2297297297297" fill="#054080"></circle><circle id="r34C36" r="3.918918918918918" cx="474.0945945945946" cy="449.2297297297297" fill="#054080"></circle><circle id="r35C9" r="3.918918918918918" cx="138.4189189189189" cy="461.66216216216213" fill="#054080"></circle><circle id="r35C12" r="3.918918918918918" cx="175.7162162162162" cy="461.66216216216213" fill="#054080"></circle><circle id="r35C13" r="3.918918918918918" cx="188.14864864864865" cy="461.66216216216213" fill="#054080"></circle><circle id="r35C15" r="3.918918918918918" cx="213.01351351351352" cy="461.66216216216213" fill="#054080"></circle><circle id="r35C16" r="3.918918918918918" cx="225.44594594594594" cy="461.66216216216213" fill="#054080"></circle><circle id="r35C18" r="3.918918918918918" cx="250.3108108108108" cy="461.66216216216213" fill="#054080"></circle><circle id="r35C20" r="3.918918918918918" cx="275.1756756756757" cy="461.66216216216213" fill="#054080"></circle><circle id="r35C21" r="3.918918918918918" cx="287.60810810810807" cy="461.66216216216213" fill="#054080"></circle><circle id="r35C23" r="3.918918918918918" cx="312.47297297297297" cy="461.66216216216213" fill="#054080"></circle><circle id="r35C24" r="3.918918918918918" cx="324.90540540540536" cy="461.66216216216213" fill="#054080"></circle><circle id="r35C27" r="3.918918918918918" cx="362.2027027027027" cy="461.66216216216213" fill="#054080"></circle><circle id="r35C28" r="3.918918918918918" cx="374.6351351351351" cy="461.66216216216213" fill="#054080"></circle><circle id="r35C30" r="3.918918918918918" cx="399.5" cy="461.66216216216213" fill="#054080"></circle><circle id="r35C31" r="3.918918918918918" cx="411.9324324324324" cy="461.66216216216213" fill="#054080"></circle><circle id="r35C36" r="3.918918918918918" cx="474.0945945945946" cy="461.66216216216213" fill="#054080"></circle><circle id="r36C9" r="3.918918918918918" cx="138.4189189189189" cy="474.0945945945946" fill="#054080"></circle><circle id="r36C10" r="3.918918918918918" cx="150.85135135135135" cy="474.0945945945946" fill="#054080"></circle><circle id="r36C12" r="3.918918918918918" cx="175.7162162162162" cy="474.0945945945946" fill="#054080"></circle><circle id="r36C20" r="3.918918918918918" cx="275.1756756756757" cy="474.0945945945946" fill="#054080"></circle><circle id="r36C21" r="3.918918918918918" cx="287.60810810810807" cy="474.0945945945946" fill="#054080"></circle><circle id="r36C22" r="3.918918918918918" cx="300.0405405405405" cy="474.0945945945946" fill="#054080"></circle><circle id="r36C24" r="3.918918918918918" cx="324.90540540540536" cy="474.0945945945946" fill="#054080"></circle><circle id="r36C25" r="3.918918918918918" cx="337.3378378378378" cy="474.0945945945946" fill="#054080"></circle><circle id="r36C29" r="3.918918918918918" cx="387.06756756756755" cy="474.0945945945946" fill="#054080"></circle><circle id="r36C32" r="3.918918918918918" cx="424.36486486486484" cy="474.0945945945946" fill="#054080"></circle><circle id="r36C33" r="3.918918918918918" cx="436.7972972972973" cy="474.0945945945946" fill="#054080"></circle><circle id="r36C34" r="3.918918918918918" cx="449.2297297297297" cy="474.0945945945946" fill="#054080"></circle><circle id="r36C35" r="3.918918918918918" cx="461.66216216216213" cy="474.0945945945946" fill="#054080"></circle><circle id="r36C36" r="3.918918918918918" cx="474.0945945945946" cy="474.0945945945946" fill="#054080"></circle><path id="outerEye" d="M20,30V97.02702702702702A9.999999999999998,9.999999999999998  0 0 0 30,107.02702702702702H97.02702702702702A9.999999999999998,9.999999999999998  0 0 0 107.02702702702702,97.02702702702702V30A9.999999999999998,9.999999999999998  0 0 0 97.02702702702702,20H30A9.999999999999998,9.999999999999998  0 0 0 20,30Z M84.59459459459458,94.59459459459458H42.432432432432435A9.999999999999998,9.999999999999998  0 0 1 32.432432432432435,84.59459459459458V42.432432432432435A9.999999999999998,9.999999999999998  0 0 1 42.432432432432435,32.432432432432435H84.59459459459458A9.999999999999998,9.999999999999998  0 0 1 94.59459459459458,42.432432432432435V84.59459459459458A9.999999999999998,9.999999999999998  0 0 1 84.59459459459458,94.59459459459458z" fill="#054080"></path><path id="outerEye" d="M20,402.97297297297297V470A9.999999999999998,9.999999999999998  0 0 0 30,480H97.02702702702702A9.999999999999998,9.999999999999998  0 0 0 107.02702702702702,470V402.97297297297297A9.999999999999998,9.999999999999998  0 0 0 97.02702702702702,392.97297297297297H30A9.999999999999998,9.999999999999998  0 0 0 20,402.97297297297297Z M84.59459459459458,467.56756756756755H42.432432432432435A9.999999999999998,9.999999999999998  0 0 1 32.432432432432435,457.56756756756755V415.4054054054054A9.999999999999998,9.999999999999998  0 0 1 42.432432432432435,405.4054054054054H84.59459459459458A9.999999999999998,9.999999999999998  0 0 1 94.59459459459458,415.4054054054054V457.56756756756755A9.999999999999998,9.999999999999998  0 0 1 84.59459459459458,467.56756756756755z" fill="#054080"></path><path id="outerEye" d="M392.97297297297297,30V97.02702702702702A9.999999999999998,9.999999999999998  0 0 0 402.97297297297297,107.02702702702702H470A9.999999999999998,9.999999999999998  0 0 0 480,97.02702702702702V30A9.999999999999998,9.999999999999998  0 0 0 470,20H402.97297297297297A9.999999999999998,9.999999999999998  0 0 0 392.97297297297297,30Z M457.56756756756755,94.59459459459458H415.4054054054054A9.999999999999998,9.999999999999998  0 0 1 405.4054054054054,84.59459459459458V42.432432432432435A9.999999999999998,9.999999999999998  0 0 1 415.4054054054054,32.432432432432435H457.56756756756755A9.999999999999998,9.999999999999998  0 0 1 467.56756756756755,42.432432432432435V84.59459459459458A9.999999999999998,9.999999999999998  0 0 1 457.56756756756755,94.59459459459458z" fill="#054080"></path><circle id="innerEye" r="18.648648648648646" cx="63.51351351351351" cy="63.51351351351351" fill="#054080"></circle><circle id="innerEye" r="18.648648648648646" cx="436.48648648648646" cy="63.51351351351351" fill="#054080"></circle><circle id="innerEye" r="18.648648648648646" cx="63.51351351351351" cy="436.48648648648646" fill="#054080"></circle></svg></svg>